<svg id="Layer_1" xmlns="http://www.w3.org/2000/svg" width="100%" height="100%" viewBox="0 0 1575.28 250.36" preserveAspectRatio="none"><defs><style> .cls-1 { fill: #fff; stroke-width: 0px; } .cls-2 { fill: none; stroke: #fff; stroke-width: 4px; } </style></defs><line class="cls-2" x1="711.06" x2="711.06" y2="250.36"/><g><path class="cls-1" d="M12.72,13.68h178.08v33.02H12.72V13.68ZM0,.96v58.46h203.52V.96H0Z"/><path class="cls-1" d="M330.26,208.98h20.48c-.28-6.08-3.27-10.75-9.63-10.75-5.89,0-9.73,4.39-10.85,10.75M342.51,234.43c-12.07,0-20.3-8.05-20.3-20.95s7.67-21.89,18.8-21.89,17.21,8.14,17.21,20.2v3.56h-28.25c.84,8.33,6.17,12.35,13.56,12.35,4.58,0,7.86-1.03,11.51-3.74h.28v6.83c-3.37,2.62-7.76,3.65-12.81,3.65M303.04,209.55c5.89,1.87,12.44,4.3,12.44,12.16,0,8.42-6.92,12.72-15.8,12.72-5.43,0-10.85-1.31-13.94-3.74v-7.39h.37c3.46,3.18,8.6,4.58,13.47,4.58,4.4,0,8.32-1.69,8.32-5.24s-3.27-4.49-9.73-6.64c-5.8-1.87-12.25-4.02-12.25-11.79s6.55-12.63,14.87-12.63c4.86,0,9.16,1.03,12.63,3.37v7.48h-.28c-3.36-2.71-7.3-4.3-12.16-4.3s-7.58,2.15-7.58,5.05c0,3.27,2.99,4.21,9.63,6.36M267.59,192.43h7.76v41.15h-7.76v-41.15ZM271.43,175.78c2.71,0,4.96,2.15,4.96,4.86s-2.25,4.86-4.96,4.86-4.96-2.15-4.96-4.86,2.34-4.86,4.96-4.86M245.99,198.79c1.77-4.39,5.71-7.01,10.19-7.01,1.78,0,3.37.28,4.02.65v7.67h-.28c-1.12-.56-2.99-.84-4.86-.84-4.21,0-7.76,2.8-9.07,7.48v26.84h-7.76v-41.15h7.76v6.36h0ZM208.95,227.41c7.67,0,12.16-6.08,12.16-14.4s-4.49-14.4-12.16-14.4c-4.21,0-8.14,2.52-10.19,6.54v15.81c2.06,4.02,5.99,6.45,10.19,6.45M210.26,191.59c12.25,0,18.8,10.01,18.8,21.42s-6.55,21.42-18.8,21.42c-5.05,0-9.35-2.62-11.5-5.43v20.39h-7.76v-56.96h7.76v4.67c2.15-2.89,6.45-5.51,11.5-5.51M169.67,198.79c1.78-4.39,5.71-7.01,10.19-7.01,1.78,0,3.37.28,4.02.65v7.67h-.28c-1.12-.56-2.99-.84-4.86-.84-4.21,0-7.76,2.8-9.07,7.48v26.84h-7.76v-41.15h7.76v6.36ZM124.77,208.98h20.48c-.28-6.08-3.27-10.75-9.63-10.75-5.89,0-9.73,4.39-10.85,10.75M137.02,234.43c-12.07,0-20.3-8.05-20.3-20.95s7.67-21.89,18.8-21.89,17.21,8.14,17.21,20.2v3.56h-28.25c.84,8.33,6.17,12.35,13.56,12.35,4.58,0,7.86-1.03,11.5-3.74h.28v6.83c-3.37,2.62-7.76,3.65-12.82,3.65M101.2,192.43h10.57v6.64h-10.57v22.16c0,4.68,2.43,6.27,6.83,6.27,1.22,0,2.53-.18,3.46-.56h.28v6.64c-1.12.47-2.71.85-4.86.85-9.63,0-13.47-4.4-13.47-12.44v-22.91h-7.11v-6.64h7.11v-10.94h7.76v10.94ZM65.94,191.59c9.26,0,14.4,6.08,14.4,16.09v25.91h-7.76v-25.72c0-5.33-2.71-9.17-8.6-9.17-4.86,0-8.98,3.09-10.38,7.48v27.4h-7.76v-41.15h7.76v5.98c2.43-3.83,6.55-6.83,12.35-6.83M0,175.13h36.1v7.11H8.14v17.86h25.35v6.92H8.14v19.46h27.97v7.11H0v-58.45ZM582.4,141.92v-13.38c-2.06-2.99-4.77-4.3-7.85-4.3-5.42,0-9.07,3.93-9.07,11.04s3.65,10.94,9.07,10.94c3.09,0,5.8-1.31,7.85-4.3M582.77,151.74c-2.62,3.37-6.73,5.24-12.34,5.24-10.66,0-17.49-9.72-17.49-21.7s6.83-21.79,17.49-21.79c5.42,0,9.35,1.69,11.97,4.77v-20.67h12.35v58.46h-11.98v-4.3ZM535.55,121.15c2.24-4.58,5.52-7.2,10.1-7.2,1.68,0,3.36.37,4.02.75v11.79h-.46c-1.4-.56-3.09-.94-5.43-.94-3.83,0-6.83,2.25-7.86,6.55v23.95h-12.35v-41.62h11.98v6.74h0ZM502.43,142.94v-3.55c-1.87-1.03-4.3-1.4-6.83-1.4-4.02,0-6.45,1.5-6.45,4.86s2.43,4.96,6.08,4.96,6.08-1.78,7.2-4.87M502.81,151.92c-2.71,3.27-6.74,4.86-11.04,4.86-8.14,0-14.78-4.95-14.78-13.75,0-8.14,6.64-13.56,16.18-13.56,2.99,0,6.08.47,9.26,1.4v-.75c0-4.49-2.53-6.45-9.17-6.45-4.21,0-8.23,1.21-11.7,3.18h-.47v-9.92c3.18-1.87,8.79-3.46,14.31-3.46,12.53,0,19.36,5.99,19.36,16.46v26.1h-11.97v-4.12h0ZM448.27,137.15v18.89h-12.34v-58.46h12.34v33.3l12.44-16.46h14.03v.47l-14.96,18.89,14.96,21.79v.47h-14.12l-12.35-18.89ZM394.78,135.28c0-13.38,9.45-21.79,21.79-21.79,4.4,0,8.51.94,11.6,3.18v10.57h-.47c-2.71-2.06-5.89-3.28-9.54-3.28-6.17,0-10.85,4.21-10.85,11.32s4.68,11.22,10.85,11.22c3.65,0,6.83-1.22,9.54-3.28h.47v10.57c-3.09,2.25-7.2,3.18-11.6,3.18-12.35,0-21.79-8.32-21.79-21.7M376.17,142.94v-3.55c-1.87-1.03-4.3-1.4-6.83-1.4-4.02,0-6.45,1.5-6.45,4.86s2.43,4.96,6.08,4.96c3.46,0,6.08-1.78,7.2-4.87M376.54,151.92c-2.71,3.27-6.73,4.86-11.04,4.86-8.14,0-14.78-4.95-14.78-13.75,0-8.14,6.64-13.56,16.18-13.56,2.99,0,6.08.47,9.26,1.4v-.75c0-4.49-2.52-6.45-9.17-6.45-4.21,0-8.23,1.21-11.69,3.18h-.47v-9.92c3.18-1.87,8.79-3.46,14.31-3.46,12.54,0,19.36,5.99,19.36,16.46v26.1h-11.97v-4.12h0ZM326.59,126.3c6.46,0,9.54-3.65,9.54-8.89s-3.09-9.07-9.54-9.07h-8.04v17.96h8.04ZM349.04,117.41c0,12.72-8.51,19.64-21.42,19.64h-9.07v18.99h-12.72v-58.46h21.79c12.91,0,21.42,6.92,21.42,19.83M275.82,114.42h9.17v9.91h-9.17v16.93c0,3.65,1.4,5.33,5.14,5.33,1.03,0,2.34-.09,3.74-.56h.28v9.73c-1.59.56-4.02,1.22-7.58,1.22-10.01,0-13.94-4.58-13.94-15.15v-17.49h-15.81v16.93c0,3.65,1.4,5.33,5.14,5.33,1.03,0,2.34-.09,3.74-.56h.28v9.73c-1.59.56-4.02,1.22-7.58,1.22-10.01,0-13.94-4.58-13.94-15.15v-17.49h-6.36v-9.91h6.36v-11.41h12.35v11.41h15.81v-11.41h12.35v11.41ZM198.57,130.41h15.15c-.28-4.3-2.06-7.29-7.01-7.29-3.74,0-7.02,1.59-8.14,7.29M208.2,156.97c-12.91,0-21.7-8.14-21.7-21.51s8.6-21.98,20.01-21.98c12.44,0,18.61,8.33,18.61,20.77v4.68h-26.56c1.5,6.45,6.55,8.13,11.6,8.13,4.4,0,7.58-.93,11.51-3.37h.47v9.63c-3.37,2.43-8.14,3.65-13.94,3.65M178.37,156.97c-10.1,0-14.22-4.02-14.22-13.47v-45.92h12.35v45.08c0,2.9,1.12,3.93,3.55,3.93.84,0,2.06-.28,2.81-.56h.19v10.2c-1.03.37-2.81.75-4.68.75M127.2,131.53l-6.55,24.51h-11.13l-12.72-41.16v-.47h12.16l6.92,24.6,6.55-24.6h9.91l6.64,24.6,7.01-24.6h11.69v.47l-12.72,41.16h-11.13l-6.64-24.51ZM67.44,130.41h15.15c-.28-4.3-2.06-7.29-7.01-7.29-3.74,0-7.01,1.59-8.14,7.29M77.07,156.97c-12.9,0-21.7-8.14-21.7-21.51s8.61-21.98,20.02-21.98c12.44,0,18.61,8.33,18.61,20.77v4.68h-26.56c1.5,6.45,6.55,8.13,11.6,8.13,4.4,0,7.57-.93,11.5-3.37h.47v9.63c-3.36,2.43-8.14,3.65-13.93,3.65M12.72,156.04H0v-58.46h12.72v23.1h22.73v-23.1h12.72v58.46h-12.72v-24.23H12.72v24.23Z"/></g><g id="NVIDIA_Logo"><path id="Eye_Mark" class="cls-1" d="M906.83,97.42v-12.44c1.2-.08,2.43-.15,3.67-.19,34.02-1.07,56.32,29.23,56.32,29.23,0,0-24.09,33.48-49.93,33.48-3.42.02-6.81-.53-10.06-1.61v-37.71c13.24,1.6,15.9,7.45,23.87,20.72l17.7-14.93s-12.91-16.94-34.71-16.94c-2.29.01-4.58.15-6.86.4M906.83,56.34v18.57c1.22-.1,2.44-.17,3.67-.22,47.3-1.6,78.12,38.8,78.12,38.8,0,0-35.4,43.03-72.27,43.03-3.19,0-6.38-.28-9.52-.84v11.48c2.63.34,5.28.51,7.93.52,34.32,0,59.13-17.52,83.17-38.27,3.98,3.19,20.29,10.95,23.65,14.35-22.85,19.13-76.09,34.54-106.29,34.54-2.91,0-5.69-.17-8.45-.44v16.14h130.43V56.34h-130.43ZM906.83,145.89v9.8c-31.74-5.65-40.54-38.66-40.54-38.66,0,0,15.24-16.89,40.55-19.62v10.76h-.05c-13.28-1.6-23.67,10.81-23.67,10.81,0,0,5.81,20.89,23.71,26.9M850.45,115.61s18.83-27.76,56.37-30.63v-10.07c-41.6,3.34-77.63,38.58-77.63,38.58,0,0,20.4,58.98,77.63,64.38v-10.71c-41.99-5.28-56.37-51.56-56.37-51.56Z"/><path id="NVIDIA" class="cls-1" d="M1272.2,82.34v90.37h25.52v-90.37h-25.52ZM1071.42,82.22v90.5h25.76v-68.71h19.95c6.61,0,11.31,1.64,14.5,5.04,4.04,4.3,5.69,11.24,5.69,23.93v39.75h24.94v-50c0-35.68-22.75-40.5-45-40.5h-45.83M1313.31,82.36v90.37h41.4c22.06,0,29.26-3.67,37.04-11.89,5.5-5.77,9.06-18.45,9.06-32.3,0-12.7-3.01-24.03-8.26-31.09-9.45-12.62-23.07-15.09-43.41-15.09h-35.82ZM1338.62,102.03h10.97c15.92,0,26.21,7.15,26.21,25.7s-10.3,25.7-26.21,25.7h-10.97v-51.4ZM1235.41,82.36l-21.3,71.62-20.41-71.62h-27.56l29.15,90.37h36.78l29.38-90.37h-26.04ZM1412.68,172.73h25.53v-90.36h-25.53v90.36ZM1484.23,82.39l-35.65,90.31h25.16l5.64-15.96h42.18l5.34,15.96h27.32l-35.91-90.31h-34.08ZM1500.79,98.87l15.46,42.31h-31.42l15.96-42.31Z"/><path class="cls-1" d="M1567.31,175.48c-4.4,0-7.97-3.57-7.97-7.97s3.57-7.97,7.97-7.97c4.4,0,7.97,3.57,7.97,7.97,0,4.4-3.56,7.97-7.97,7.97h0ZM1567.31,161.07c-3.58,0-6.33,2.75-6.33,6.44s2.75,6.44,6.33,6.44,6.33-2.75,6.33-6.44-2.75-6.44-6.33-6.44ZM1568.74,171.74l-1.54-3.3h-.9v3.3h-1.89v-8.48h3.46c1.72,0,2.82,1.26,2.82,2.67,0,1-.62,1.9-1.56,2.25l1.8,3.57h-2.18ZM1567.61,164.82h-1.32v2.2h1.32c.61.03,1.13-.44,1.16-1.04.03-.61-.44-1.13-1.04-1.16-.04,0-.08,0-.12,0Z"/></g></svg>