<svg width="242" height="105" viewBox="0 0 242 105" xmlns="http://www.w3.org/2000/svg"><g fill="#01A982" stroke="#000"><path d="M12.249 27.29h3.372v16.174h-3.372v-6.796H4.926v6.796H1.554V27.29h3.372v6.428h7.323zM25.315 37.853h-3.24v5.611h-3.346V27.29h6.586q2.608 0 4.149 1.383 1.54 1.383 1.54 3.912t-1.54 3.899q-1.541 1.37-4.15 1.37zm2.37-5.268q0-1.133-.658-1.778-.659-.645-1.923-.645h-3.03v4.82h3.03q1.264 0 1.923-.658.658-.659.658-1.739zM33.27 27.29h10.985v2.95h-7.666v3.53h6.954v2.872H36.59v3.846h7.666v2.976H33.27zM58.795 36.773v-.658q0-.843-.698-1.344-.698-.5-1.936-.5-1.765 0-3.214.948v-2.818q1.555-.975 3.925-.975 2.424 0 3.741 1.185 1.317 1.186 1.317 3.346v7.507h-3.135v-.632q-.316.316-1.12.58-.803.263-1.725.263-1.844 0-3.095-1.027-1.251-1.028-1.251-2.793 0-1.66 1.304-2.713 1.304-1.053 3.253-1.053 1.686 0 2.634.684zm0 3.478v-.843q-.21-.475-.79-.751-.58-.277-1.29-.277-.844 0-1.463.37-.619.368-.619 1.08 0 .71.606 1.08.606.368 1.475.368.712 0 1.291-.277.58-.276.79-.75zM64.643 43.464V31.69h3.267v1.08q1.159-1.343 3.16-1.343 1.976 0 3.07 1.185 1.093 1.186 1.093 3.161v7.692h-3.267v-7.007q0-.948-.487-1.514-.487-.567-1.436-.567-.764 0-1.356.435-.593.435-.777 1.199v7.454zM85.506 43.464v-.974q-.421.5-1.238.869t-1.712.369q-2.476 0-3.912-1.752t-1.436-4.386q0-2.634 1.436-4.4 1.436-1.764 3.912-1.764.895 0 1.712.369t1.238.87v-6.323H88.8v17.122zm0-3.951v-3.872q-.29-.606-.895-.988-.606-.382-1.318-.382-1.29 0-2.054.935-.764.935-.764 2.384 0 1.449.764 2.37.764.923 2.054.923.738 0 1.33-.382.593-.382.883-.988zM110.873 27.29v16.174h-2.66l-7.64-10.774v10.774h-3.24V27.29h3.162l7.138 10.221v-10.22zM122.148 43.464h-3.267l-6.058-16.174h3.556l4.188 11.696 4.189-11.696h3.477zM133.528 27.29v16.174h-3.372V27.29zM139.955 40.488h2.24q2.29 0 3.529-1.37 1.238-1.37 1.238-3.74 0-2.398-1.238-3.768-1.238-1.37-3.53-1.37h-2.239zm-3.345 2.976V27.29h5.716q3.661 0 5.821 2.187 2.16 2.186 2.16 5.9 0 3.715-2.16 5.9-2.16 2.187-5.821 2.187zM156.024 27.29v16.174h-3.372V27.29zM164.137 27.29h3.345l6.19 16.174h-3.424l-1.448-3.898h-6.06l-1.422 3.898h-3.371zm1.633 4.057l-1.975 5.374h3.95z" stroke-width=".02634"/></g><g fill="#01A982" stroke="#000"><path d="M11.854 58.031v11.775H8.587v-1.08q-1.211 1.344-3.16 1.344-1.95 0-3.043-1.186-1.093-1.185-1.093-3.16V58.03h3.266v7.034q0 .974.474 1.528.474.553 1.423.553.764 0 1.343-.435.58-.435.764-1.198V58.03zM14.672 69.806V58.031h3.267v1.08q1.159-1.343 3.16-1.343 1.977 0 3.07 1.185 1.093 1.186 1.093 3.161v7.692h-3.266V62.8q0-.948-.488-1.514-.487-.567-1.435-.567-.764 0-1.357.435t-.777 1.199v7.454zM31.242 52.684v17.122h-3.267V52.684zM44.887 63.932q0 2.713-1.607 4.426-1.607 1.712-4.162 1.712-2.555 0-4.162-1.712-1.607-1.713-1.607-4.426 0-2.74 1.607-4.452 1.607-1.712 4.162-1.712 2.555 0 4.162 1.712 1.607 1.712 1.607 4.452zm-3.24 0q0-1.528-.672-2.463t-1.857-.935q-1.186 0-1.857.935-.672.935-.672 2.463 0 1.502.672 2.437.671.935 1.857.935 1.185 0 1.857-.935.672-.935.672-2.437zM46.336 63.932q0-2.792 1.699-4.478t4.254-1.686q2.002 0 3.187.922v2.977q-1.159-1.054-2.792-1.054-1.343 0-2.226.896-.882.895-.882 2.423t.882 2.424q.883.895 2.226.895 1.58 0 2.792-1.054v2.95q-1.185.923-3.187.923-2.555 0-4.254-1.686-1.7-1.686-1.7-4.452zM64.064 63.432l5.005 6.374h-3.82l-4.24-5.426v5.426h-3.267V52.684h3.266v10.01l4.03-4.663h3.925zM81.239 53.632h3.345l6.19 16.174H87.35l-1.449-3.898h-6.058l-1.423 3.898h-3.372zm1.633 4.057l-1.976 5.374h3.952zM96.096 53.632v16.174h-3.372V53.632z" stroke-width=".02634"/></g></svg>