<svg width="219" height="104" viewBox="0 0 219 104" xmlns="http://www.w3.org/2000/svg"><g fill="#FFF" stroke="#000"><path d="M62.57 26.936h3.302l6.11 15.964h-3.38l-1.43-3.848h-5.98L59.788 42.9H56.46zm1.612 4.004l-1.95 5.304h3.9zM77.234 26.936V42.9h-3.328V26.936zM95.954 31.278V42.9H92.73v-1.066q-1.196 1.326-3.12 1.326-1.924 0-3.003-1.17-1.079-1.17-1.079-3.12v-7.592h3.224v6.942q0 .962.468 1.508t1.404.546q.754 0 1.326-.429.572-.429.754-1.183v-7.384zM98.736 42.9V31.278h3.224v1.066q1.144-1.326 3.12-1.326 1.95 0 3.029 1.17t1.079 3.12V42.9h-3.224v-6.916q0-.936-.481-1.495t-1.417-.559q-.754 0-1.339.429t-.767 1.183V42.9zM115.09 26v16.9h-3.224V26zM128.558 37.102q0 2.678-1.586 4.368-1.586 1.69-4.108 1.69-2.522 0-4.108-1.69-1.586-1.69-1.586-4.368 0-2.704 1.586-4.394t4.108-1.69q2.522 0 4.108 1.69 1.586 1.69 1.586 4.394zm-3.198 0q0-1.508-.663-2.431t-1.833-.923q-1.17 0-1.833.923t-.663 2.431q0 1.482.663 2.405.663.923 1.833.923t1.833-.923q.663-.923.663-2.405zM129.988 37.102q0-2.756 1.677-4.42 1.677-1.664 4.199-1.664 1.976 0 3.146.91v2.938q-1.144-1.04-2.756-1.04-1.326 0-2.197.884t-.871 2.392q0 1.508.871 2.392.871.884 2.197.884 1.56 0 2.756-1.04v2.912q-1.17.91-3.146.91-2.522 0-4.199-1.664t-1.677-4.394zM147.486 36.608l4.94 6.292h-3.77l-4.186-5.356V42.9h-3.224V26h3.224v9.88l3.978-4.602h3.874zM153.284 41.99V39q.832.754 1.924 1.183 1.092.429 2.08.429 1.716 0 1.716-.988 0-.442-.312-.676-.312-.234-1.014-.468l-1.118-.312q-1.612-.442-2.457-1.261-.845-.819-.845-2.249 0-1.664 1.274-2.652 1.274-.988 3.276-.988 2.106 0 3.718 1.04v2.938q-1.794-1.43-3.562-1.43-.702 0-1.131.26-.429.26-.429.728 0 .442.286.663.286.221.962.429l1.3.39q1.664.468 2.444 1.313t.78 2.223q0 1.716-1.326 2.652-1.326.936-3.458.936-2.574 0-4.108-1.17z" stroke-width=".026"/></g><g fill="#FFF" stroke="#000"><path d="M71.319 63.83h-7.488q.182 1.352 1.092 2.015.91.663 2.262.663 1.742 0 3.328-1.014v2.652q-1.378 1.014-3.822 1.014-2.678 0-4.316-1.612t-1.638-4.368q0-2.73 1.534-4.446 1.534-1.716 3.926-1.716 2.47 0 3.796 1.56 1.326 1.56 1.326 4.212zm-5.044-4.238q-1.794 0-2.34 2.132h4.394q-.052-.962-.585-1.547-.533-.585-1.469-.585zM87.803 52.078v2.73q-.442-.312-1.144-.312-.728 0-1.157.416-.429.416-.429 1.196v1.17h2.418v2.6h-2.418V68.9h-3.172v-9.022h-4.394V68.9h-3.172v-9.022h-1.898v-2.6h1.898v-1.222q0-1.95 1.118-3.042 1.118-1.092 2.99-1.092 1.092 0 1.794.312v2.73q-.442-.312-1.144-.312-.728 0-1.157.403-.429.403-.429 1.157v1.066h4.394V55.9q0-1.95 1.118-3.042 1.118-1.092 2.99-1.092 1.092 0 1.794.312zM92.691 57.278V68.9h-3.224V57.278zm.286-3.354q0 .806-.559 1.326t-1.339.52q-.806 0-1.365-.52-.559-.52-.559-1.326 0-.78.572-1.313.572-.533 1.352-.533.78 0 1.339.533.559.533.559 1.313zM94.771 63.102q0-2.756 1.677-4.42 1.677-1.664 4.199-1.664 1.976 0 3.146.91v2.938q-1.144-1.04-2.756-1.04-1.326 0-2.197.884t-.871 2.392q0 1.508.871 2.392.871.884 2.197.884 1.56 0 2.756-1.04v2.912q-1.17.91-3.146.91-2.522 0-4.199-1.664t-1.677-4.394zM109.253 57.278V68.9h-3.224V57.278zm.286-3.354q0 .806-.559 1.326t-1.339.52q-.806 0-1.365-.52-.559-.52-.559-1.326 0-.78.572-1.313.572-.533 1.352-.533.78 0 1.339.533.559.533.559 1.313zM121.915 63.83h-7.488q.182 1.352 1.092 2.015.91.663 2.262.663 1.742 0 3.328-1.014v2.652q-1.378 1.014-3.822 1.014-2.678 0-4.316-1.612t-1.638-4.368q0-2.73 1.534-4.446 1.534-1.716 3.926-1.716 2.47 0 3.796 1.56 1.326 1.56 1.326 4.212zm-5.044-4.238q-1.794 0-2.34 2.132h4.394q-.052-.962-.585-1.547-.533-.585-1.469-.585zM124.021 68.9V57.278h3.224v1.066q1.144-1.326 3.12-1.326 1.95 0 3.029 1.17t1.079 3.12V68.9h-3.224v-6.916q0-.936-.481-1.495t-1.417-.559q-.754 0-1.339.429t-.767 1.183V68.9zM136.423 63.102q0-2.756 1.677-4.42 1.677-1.664 4.199-1.664 1.976 0 3.146.91v2.938q-1.144-1.04-2.756-1.04-1.326 0-2.197.884t-.871 2.392q0 1.508.871 2.392.871.884 2.197.884 1.56 0 2.756-1.04v2.912q-1.17.91-3.146.91-2.522 0-4.199-1.664t-1.677-4.394zM152.543 73.19h-3.172l1.69-4.238-4.446-11.674h3.406L152.699 65l2.652-7.722h3.25z" stroke-width=".026"/></g></svg>